REM DIRINDEX 1\2\5,1\2\6,1\2\7,1\2\8,1\3\9,1\3\10,1\3\11,1\4\12,1\4\13,1\4\14,1\4\15,1\4\16
REM DIRNAME cjc034,folder01,folder02,folder03,folder04,folder05,folder06,folder07,folder08,folder09,folder10,folder11,folder12,folder13,folder14,folder15
TITLE ""
FILE "1200_sec01_0220_0229.mp3" MP3
  TRACK 01 AUDIO
    TITLE "0:"
    INDEX 01 00:00:00
  TRACK 02 AUDIO
    TITLE "12:cjc034_04513"
    INDEX 01 00:00:17
  TRACK 03 AUDIO
    TITLE "0:"
    INDEX 01 00:01:38
  TRACK 04 AUDIO
    TITLE "13:cjc034_04514"
    INDEX 01 00:01:69
  TRACK 05 AUDIO
    TITLE "0:"
    INDEX 01 00:10:74
  TRACK 06 AUDIO
    TITLE "14:cjc034_04515"
    INDEX 01 00:11:31
  TRACK 07 AUDIO
    TITLE "0:"
    INDEX 01 00:12:52
  TRACK 08 AUDIO
    TITLE "15:cjc034_04516"
    INDEX 01 00:13:08
  TRACK 09 AUDIO
    TITLE "0:"
    INDEX 01 00:18:09
  TRACK 10 AUDIO
    TITLE "12:cjc034_04517"
    INDEX 01 00:19:46
  TRACK 11 AUDIO
    TITLE "0:"
    INDEX 01 00:21:06
  TRACK 12 AUDIO
    TITLE "13:cjc034_04518"
    INDEX 01 00:21:41
  TRACK 13 AUDIO
    TITLE "0:"
    INDEX 01 00:23:08
  TRACK 14 AUDIO
    TITLE "14:cjc034_04519"
    INDEX 01 00:23:44
  TRACK 15 AUDIO
    TITLE "0:"
    INDEX 01 00:25:07
  TRACK 16 AUDIO
    TITLE "15:cjc034_04520"
    INDEX 01 00:25:41
  TRACK 17 AUDIO
    TITLE "0:"
    INDEX 01 00:31:18
  TRACK 18 AUDIO
    TITLE "12:cjc034_04521"
    INDEX 01 00:32:52
  TRACK 19 AUDIO
    TITLE "0:"
    INDEX 01 00:36:31
  TRACK 20 AUDIO
    TITLE "13:cjc034_04522"
    INDEX 01 00:36:62
  TRACK 21 AUDIO
    TITLE "0:"
    INDEX 01 00:38:30
  TRACK 22 AUDIO
    TITLE "14:cjc034_04523"
    INDEX 01 00:38:61
  TRACK 23 AUDIO
    TITLE "0:"
    INDEX 01 00:42:39
  TRACK 24 AUDIO
    TITLE "15:cjc034_04524"
    INDEX 01 00:42:70
  TRACK 25 AUDIO
    TITLE "0:"
    INDEX 01 00:49:08
  TRACK 26 AUDIO
    TITLE "12:cjc034_04525"
    INDEX 01 00:50:41
  TRACK 27 AUDIO
    TITLE "0:"
    INDEX 01 00:52:51
  TRACK 28 AUDIO
    TITLE "13:cjc034_04526"
    INDEX 01 00:53:09
  TRACK 29 AUDIO
    TITLE "0:"
    INDEX 01 00:54:48
  TRACK 30 AUDIO
    TITLE "14:cjc034_04527"
    INDEX 01 00:55:06
  TRACK 31 AUDIO
    TITLE "0:"
    INDEX 01 00:57:19
  TRACK 32 AUDIO
    TITLE "15:cjc034_04528"
    INDEX 01 00:57:50
  TRACK 33 AUDIO
    TITLE "0:"
    INDEX 01 01:01:72
  TRACK 34 AUDIO
    TITLE "12:cjc034_04529"
    INDEX 01 01:03:31
  TRACK 35 AUDIO
    TITLE "0:"
    INDEX 01 01:06:42
  TRACK 36 AUDIO
    TITLE "13:cjc034_04530"
    INDEX 01 01:07:00
  TRACK 37 AUDIO
    TITLE "0:"
    INDEX 01 01:10:41
  TRACK 38 AUDIO
    TITLE "14:cjc034_04531"
    INDEX 01 01:11:00
  TRACK 39 AUDIO
    TITLE "0:"
    INDEX 01 01:14:12
  TRACK 40 AUDIO
    TITLE "15:cjc034_04532"
    INDEX 01 01:14:45
  TRACK 41 AUDIO
    TITLE "0:"
    INDEX 01 01:17:73
  TRACK 42 AUDIO
    TITLE "12:cjc034_04533"
    INDEX 01 01:19:32
  TRACK 43 AUDIO
    TITLE "0:"
    INDEX 01 01:22:23
  TRACK 44 AUDIO
    TITLE "13:cjc034_04534"
    INDEX 01 01:22:56
  TRACK 45 AUDIO
    TITLE "0:"
    INDEX 01 01:24:06
  TRACK 46 AUDIO
    TITLE "14:cjc034_04535"
    INDEX 01 01:24:41
  TRACK 47 AUDIO
    TITLE "0:"
    INDEX 01 01:27:32
  TRACK 48 AUDIO
    TITLE "15:cjc034_04536"
    INDEX 01 01:27:65
  TRACK 49 AUDIO
    TITLE "0:"
    INDEX 01 01:32:37
  TRACK 50 AUDIO
    TITLE "12:cjc034_04537"
    INDEX 01 01:33:70
  TRACK 51 AUDIO
    TITLE "0:"
    INDEX 01 01:35:12
  TRACK 52 AUDIO
    TITLE "13:cjc034_04538"
    INDEX 01 01:35:47
  TRACK 53 AUDIO
    TITLE "0:"
    INDEX 01 01:40:64
  TRACK 54 AUDIO
    TITLE "14:cjc034_04539"
    INDEX 01 01:41:18
  TRACK 55 AUDIO
    TITLE "0:"
    INDEX 01 01:42:35
  TRACK 56 AUDIO
    TITLE "15:cjc034_04540"
    INDEX 01 01:42:71
  TRACK 57 AUDIO
    TITLE "0:"
    INDEX 01 01:47:52
  TRACK 58 AUDIO
    TITLE "12:cjc034_04541"
    INDEX 01 01:49:08
  TRACK 59 AUDIO
    TITLE "0:"
    INDEX 01 01:50:56
  TRACK 60 AUDIO
    TITLE "13:cjc034_04542"
    INDEX 01 01:51:17
  TRACK 61 AUDIO
    TITLE "0:"
    INDEX 01 01:52:61
  TRACK 62 AUDIO
    TITLE "14:cjc034_04543"
    INDEX 01 01:53:20
  TRACK 63 AUDIO
    TITLE "0:"
    INDEX 01 01:54:68
  TRACK 64 AUDIO
    TITLE "15:cjc034_04544"
    INDEX 01 01:55:28
  TRACK 65 AUDIO
    TITLE "0:"
    INDEX 01 02:00:67
  TRACK 66 AUDIO
    TITLE "12:cjc034_04545"
    INDEX 01 02:02:22
  TRACK 67 AUDIO
    TITLE "0:"
    INDEX 01 02:05:54
  TRACK 68 AUDIO
    TITLE "13:cjc034_04546"
    INDEX 01 02:06:12
  TRACK 69 AUDIO
    TITLE "0:"
    INDEX 01 02:09:15
  TRACK 70 AUDIO
    TITLE "14:cjc034_04547"
    INDEX 01 02:09:46
  TRACK 71 AUDIO
    TITLE "0:"
    INDEX 01 02:13:03
  TRACK 72 AUDIO
    TITLE "15:cjc034_04548"
    INDEX 01 02:13:38
  TRACK 73 AUDIO
    TITLE "0:"
    INDEX 01 02:17:65
  TRACK 74 AUDIO
    TITLE "16:cjc034_04549"
    INDEX 01 02:19:23
  TRACK 75 AUDIO
    TITLE "0:"
    INDEX 01 02:22:54
  TRACK 76 AUDIO
    TITLE "12:cjc034_04550"
    INDEX 01 02:23:56
  TRACK 77 AUDIO
    TITLE "0:"
    INDEX 01 02:25:20
  TRACK 78 AUDIO
    TITLE "13:cjc034_04551"
    INDEX 01 02:25:55
  TRACK 79 AUDIO
    TITLE "0:"
    INDEX 01 02:26:68
  TRACK 80 AUDIO
    TITLE "14:cjc034_04552"
    INDEX 01 02:27:26
  TRACK 81 AUDIO
    TITLE "0:"
    INDEX 01 02:28:65
  TRACK 82 AUDIO
    TITLE "15:cjc034_04553"
    INDEX 01 02:29:21
  TRACK 83 AUDIO
    TITLE "0:"
    INDEX 01 02:33:39
